<svg width="32" height="32" viewBox="0 0 32 32" fill="none" xmlns="http://www.w3.org/2000/svg">
<g clip-path="url(#clip0_335_1258)">
<path d="M0.781559 18.6669L9.71809 9.74566L18.6709 0.80826C19.7137 -0.232799 21.4105 -0.232799 22.4534 0.80826L22.4782 0.833072C22.929 1.2832 23.1028 1.93776 22.9322 2.54113C22.8299 2.9025 22.9312 3.29144 23.1964 3.55625C23.4617 3.821 23.8514 3.92206 24.2132 3.82012C24.8177 3.64975 25.4735 3.82319 25.9245 4.27331L27.7469 6.09261C28.1976 6.54274 28.3715 7.1973 28.2008 7.80067C28.0985 8.16204 28.1998 8.55098 28.465 8.81579C28.7303 9.08048 29.1199 9.18179 29.4818 9.07966C30.0864 8.90929 30.7421 9.08273 31.1931 9.53285L31.2179 9.55754C32.2607 10.5986 32.2607 12.2925 31.2179 13.3335L22.3085 22.2274L13.3284 31.1923C12.8244 31.6955 12.1528 31.9726 11.4371 31.9726C10.7214 31.9726 10.0498 31.6955 9.54584 31.1923C9.08384 30.7311 8.91809 30.0564 9.11334 29.4315C9.22871 29.062 9.13046 28.663 8.85721 28.3901C8.5839 28.1172 8.18403 28.0193 7.81422 28.1343C7.18791 28.3292 6.51204 28.1637 6.05016 27.7026L4.27736 25.9328C3.81536 25.4716 3.64961 24.7969 3.84486 24.1719C3.96023 23.8025 3.86198 23.4034 3.58874 23.1306C3.31542 22.8577 2.91555 22.7596 2.54574 22.8748C1.91943 23.0697 1.24362 22.9043 0.781684 22.4431C0.277561 21.9399 0 21.2694 0 20.5549C0 19.8406 0.277561 19.17 0.781559 18.6669Z" fill="#4596E6"/>
<path d="M0.781559 18.6669L9.71809 9.74564L22.3085 22.2275L13.3284 31.1923C12.8244 31.6954 12.1528 31.9725 11.4371 31.9725C10.7215 31.9725 10.0498 31.6954 9.54584 31.1923C9.08384 30.7311 8.91809 30.0564 9.11334 29.4314C9.22871 29.062 9.13046 28.6629 8.85721 28.3901C8.5839 28.1172 8.18403 28.0193 7.81422 28.1343C7.18791 28.3292 6.51204 28.1637 6.05016 27.7026L4.27736 25.9328C3.81536 25.4716 3.64961 24.7968 3.84486 24.1719C3.96023 23.8025 3.86198 23.4034 3.58874 23.1306C3.31542 22.8577 2.91555 22.7596 2.54574 22.8748C1.91943 23.0696 1.24362 22.9043 0.781684 22.443C0.277561 21.9398 0 21.2693 0 20.5549C0 19.8405 0.277561 19.17 0.781559 18.6669Z" fill="#006DF0"/>
<path d="M25.2718 13.3393C25.5665 13.3393 25.861 13.2269 26.0858 13.002C26.5354 12.5524 26.5354 11.8234 26.0858 11.3738L23.2508 8.53873L20.3868 5.6748C19.9372 5.22518 19.2082 5.22518 18.7586 5.6748C18.309 6.12443 18.309 6.85342 18.7586 7.30305L21.2551 9.79954L24.4576 13.002C24.6824 13.2269 24.9771 13.3393 25.2718 13.3393Z" fill="#D7EBFF"/>
<path d="M21.3153 13.9114C21.61 13.9114 21.9045 13.799 22.1294 13.5742C22.579 13.1245 22.579 12.3955 22.1294 11.9459L21.0082 10.8248L19.8497 9.6663C19.4001 9.21667 18.6711 9.21673 18.2215 9.6663C17.7719 10.1159 17.7719 10.8449 18.2215 11.2945L19.1728 12.2458L20.5011 13.5741C20.7259 13.7989 21.0206 13.9114 21.3153 13.9114Z" fill="#D7EBFF"/>
<path d="M6.22752 18.2866L8.45282 16.0613C8.84351 15.6706 9.36401 15.4554 9.91825 15.4554C10.4725 15.4554 10.9929 15.6706 11.3837 16.0613L15.78 20.4576C16.1707 20.8483 16.3859 21.3688 16.3859 21.923C16.3859 22.4773 16.1707 22.9977 15.78 23.3885L13.5547 25.6138C13.164 26.0045 12.6435 26.2197 12.0892 26.2197C11.535 26.2197 11.0146 26.0045 10.6238 25.6138L6.22752 21.2175C5.83683 20.8268 5.62158 20.3063 5.62158 19.7521C5.62158 19.1978 5.83677 18.6773 6.22752 18.2866Z" fill="#BDDEFF"/>
<path d="M18.759 5.67492C19.2087 5.2253 19.9377 5.2253 20.3873 5.67492L23.2513 8.53885L21.6357 10.1798L18.759 7.30317C18.3095 6.85354 18.3095 6.12455 18.759 5.67492Z" fill="#BDDEFF"/>
<path d="M18.2215 9.66629C18.6711 9.21667 19.4001 9.21667 19.8497 9.66629L21.0011 10.8177L19.3855 12.4586L18.2213 11.2946C17.7719 10.8449 17.7719 10.116 18.2215 9.66629Z" fill="#BDDEFF"/>
</g>
<defs>
<clipPath id="clip0_335_1258">
<rect width="32" height="32" fill="white"/>
</clipPath>
</defs>
</svg>
