<svg width="38" height="38" viewBox="0 0 38 38" fill="none" xmlns="http://www.w3.org/2000/svg">
<g clip-path="url(#clip0_230_300)">
<path d="M34.175 8.04257V32.5663C34.175 35.0173 32.1834 37.0114 29.7355 37.0114H8.97514C6.52721 37.0114 4.53564 35.0173 4.53564 32.5663V8.04257C4.53564 5.59071 6.52721 3.59662 8.97514 3.59662H29.7355C32.1834 3.59662 34.175 5.59071 34.175 8.04257Z" fill="#E3EEFF"/>
<path d="M34.1746 8.04257V32.5663C34.1746 35.0173 32.183 37.0114 29.7351 37.0114H19.3535V3.59662H29.7351C32.183 3.59662 34.1746 5.59071 34.1746 8.04257Z" fill="#D7E2F2"/>
<path d="M24.475 2.74206V6.16146C24.475 6.63329 24.0926 7.01603 23.6213 7.01603H15.0849C14.6136 7.01603 14.2314 6.63329 14.2314 6.16146V2.74206C14.2314 2.26995 14.6136 1.88749 15.0849 1.88749H16.7704C16.8682 1.88749 16.9565 1.82904 16.9952 1.73855C17.387 0.821878 18.2966 0.17807 19.3535 0.17807C20.4096 0.17807 21.3187 0.821878 21.7096 1.73855C21.7475 1.82904 21.8366 1.88749 21.9344 1.88749H23.6213C24.0926 1.88749 24.475 2.26995 24.475 2.74206Z" fill="#FFDE00"/>
<path d="M29.5999 14.3286C29.5999 14.9249 29.1177 15.4077 28.5222 15.4077H17.1197C16.5239 15.4077 16.042 14.9249 16.042 14.3286C16.042 13.7331 16.5239 13.2495 17.1197 13.2495H28.5222C29.1179 13.2495 29.5999 13.7331 29.5999 14.3286Z" fill="#697E97"/>
<path d="M10.3627 16.3486C10.5852 16.5714 10.8775 16.6827 11.1703 16.6827C11.4626 16.6827 11.7554 16.5714 11.9785 16.3486L14.5076 13.8161C14.9286 13.3948 14.9286 12.7114 14.5076 12.2901C14.087 11.8686 13.4044 11.8686 12.9837 12.2901L11.1706 14.1055L10.8387 13.7731C10.418 13.3518 9.73543 13.3518 9.31475 13.7731C8.89378 14.1946 8.89378 14.8777 9.31475 15.2993L10.3627 16.3486Z" fill="#AAB5C6"/>
<path d="M29.576 21.9916C29.576 22.5882 29.0937 23.0707 28.4983 23.0707H17.0958C16.5009 23.0707 16.0181 22.5882 16.0181 21.9916C16.0181 21.3962 16.5009 20.9125 17.0958 20.9125H28.4983C29.0937 20.9125 29.576 21.3962 29.576 21.9916Z" fill="#697E97"/>
<path d="M10.3368 24.0108C10.5526 24.2277 10.8401 24.3468 11.1458 24.3468C11.4516 24.3468 11.7388 24.2277 11.9538 24.0119L14.4829 21.4794C14.9039 21.0581 14.9039 20.3747 14.4829 19.9534C14.0622 19.5319 13.3796 19.5319 12.959 19.9534L11.1458 21.7685L10.814 21.4364C10.393 21.0151 9.7107 21.0151 9.28974 21.4364C8.86878 21.8579 8.86906 22.541 9.28974 22.9626L10.3368 24.0108Z" fill="#AAB5C6"/>
<path d="M29.7356 29.5793C29.7356 30.1757 29.2528 30.6584 28.6579 30.6584H17.2554C16.6597 30.6584 16.1777 30.1757 16.1777 29.5793C16.1777 28.9836 16.66 28.5002 17.2554 28.5002H28.6579C29.2528 28.5002 29.7356 28.9836 29.7356 29.5793Z" fill="#697E97"/>
<path d="M13.1189 27.5406L11.3058 29.3559L10.9742 29.0238C10.5533 28.6022 9.87096 28.6022 9.45 29.0238C9.02904 29.445 9.02904 30.1284 9.45 30.5497L10.499 31.6001C10.7213 31.8221 11.0133 31.9331 11.3055 31.9331C11.5981 31.9331 11.8909 31.8218 12.114 31.599L14.6432 29.0668C15.0641 28.6452 15.0641 27.9621 14.6432 27.5406C14.2225 27.119 13.5399 27.119 13.1189 27.5406Z" fill="#AAB5C6"/>
<path d="M23.6213 7.01603H19.3535V0.17807C20.4096 0.17807 21.3187 0.821878 21.7096 1.73855C21.7475 1.82904 21.8366 1.88749 21.9344 1.88749H23.6213C24.0926 1.88749 24.475 2.26995 24.475 2.74206V6.16146C24.475 6.63329 24.0926 7.01603 23.6213 7.01603Z" fill="#FFBC17"/>
<path d="M28.4978 23.0707H19.3535V20.9125H28.4978C29.0935 20.9125 29.5755 21.3961 29.5755 21.9916C29.5755 22.5882 29.0933 23.0707 28.4978 23.0707Z" fill="#38506E"/>
<path d="M28.5222 15.4077H19.3535V13.2495H28.5222C29.1177 13.2495 29.5999 13.7331 29.5999 14.3286C29.5999 14.9249 29.118 15.4077 28.5222 15.4077Z" fill="#38506E"/>
<path d="M29.7357 29.5793C29.7357 30.1757 29.2529 30.6584 28.658 30.6584H19.3535V28.5002H28.658C29.2529 28.5002 29.7357 28.9836 29.7357 29.5793Z" fill="#38506E"/>
</g>
<defs>
<clipPath id="clip0_230_300">
<rect width="36.8333" height="36.8333" fill="white" transform="translate(0.937988 0.177979)"/>
</clipPath>
</defs>
</svg>
