<svg width="32" height="32" viewBox="0 0 32 32" fill="none" xmlns="http://www.w3.org/2000/svg">
<g clip-path="url(#clip0_335_1278)">
<path d="M26.2492 26.2526C31.9115 20.5903 31.9115 11.4097 26.2492 5.74735C20.5868 0.0849693 11.4062 0.0849686 5.74386 5.74735C0.0814781 11.4097 0.0814781 20.5903 5.74386 26.2526C11.4062 31.915 20.5868 31.915 26.2492 26.2526Z" fill="#A3DEFE"/>
<path d="M11.0301 2.37262C5.46897 4.40137 1.49854 9.73693 1.49854 16C1.49854 24.0091 7.99116 30.5016 16.0002 30.5016C19.6867 30.5016 23.0512 29.1252 25.6098 26.8593C8.50435 24.9689 7.60666 8.71831 11.0301 2.37262Z" fill="#7ACEFA"/>
<path d="M27.9062 24.2797H21.3698C22.8275 21.4886 23.7277 18.5006 23.7277 16C23.7277 13.4994 22.8275 10.5114 21.3698 7.72032H27.9062C27.6818 7.3982 27.4454 7.08513 27.1962 6.78282H20.8548C19.7081 4.79501 18.2876 2.95295 16.7244 1.51638C16.4844 1.50457 16.2431 1.49832 16.0002 1.49832C15.7574 1.49832 15.516 1.50457 15.2761 1.51638C13.7129 2.95288 12.2924 4.79507 11.1457 6.78282H4.80424C4.55505 7.08513 4.31868 7.3982 4.09424 7.72032H10.6307C9.17305 10.5114 8.27286 13.4994 8.27286 16C8.27286 18.5006 9.17305 21.4886 10.6307 24.2797H4.09424C4.31868 24.6018 4.55505 24.9149 4.80424 25.2172H11.1457C12.2924 27.205 13.7129 29.0471 15.2761 30.4836C15.516 30.4954 15.7574 30.5017 16.0002 30.5017C16.2431 30.5017 16.4845 30.4954 16.7244 30.4836C18.2876 29.0471 19.7081 27.205 20.8548 25.2172H27.1962C27.4454 24.9149 27.6818 24.6018 27.9062 24.2797ZM16.0002 2.12313C17.3756 3.36726 18.6724 4.97482 19.7683 6.78288H12.2322C13.3281 4.97482 14.6248 3.3672 16.0002 2.12313ZM16.0002 29.8769C14.6248 28.6328 13.3281 27.0252 12.2322 25.2171H19.7684C18.6724 27.0252 17.3756 28.6328 16.0002 29.8769ZM20.7529 23.4293C20.6101 23.7163 20.4616 23.9998 20.3085 24.2796H11.692C11.5389 23.9998 11.3904 23.7163 11.2476 23.4293C9.93386 20.7888 9.2103 18.1503 9.2103 16C9.2103 13.8498 9.9338 11.2113 11.2476 8.5707C11.3904 8.2837 11.5389 8.0002 11.692 7.72032H20.3085C20.4616 8.00013 20.6101 8.28363 20.7529 8.5707C22.0667 11.2113 22.7902 13.8498 22.7902 16C22.7902 18.1503 22.0667 20.7888 20.7529 23.4293Z" fill="#7C899A"/>
<path d="M30.171 12.0456H1.829C0.818875 12.0456 0 12.8644 0 13.8746V18.1254C0 19.1355 0.818875 19.9544 1.829 19.9544H30.171C31.1811 19.9544 32 19.1355 32 18.1254V13.8746C32 12.8644 31.1811 12.0456 30.171 12.0456Z" fill="#F7EF87"/>
<path d="M1.829 12.0456C0.818875 12.0456 0 12.8644 0 13.8746V18.1254C0 19.1355 0.818875 19.9544 1.829 19.9544H17.2298C15.2876 18.667 14.4678 15.1294 15.2768 12.0456H1.829Z" fill="#EFD176"/>
<path d="M17.332 18.2983C17.135 18.2983 16.9589 18.175 16.8915 17.9898L16.0002 15.541L15.1089 17.9899C15.0415 18.1751 14.8655 18.2983 14.6684 18.2983C14.4713 18.2983 14.2953 18.1751 14.2279 17.9899L12.8961 14.3308C12.8075 14.0875 12.933 13.8186 13.1763 13.73C13.4195 13.6415 13.6885 13.7669 13.7771 14.0101L14.6684 16.459L15.5597 14.0101C15.6271 13.8249 15.8031 13.7017 16.0002 13.7017C16.1973 13.7017 16.3733 13.8249 16.4407 14.0101L17.332 16.459L18.2233 14.0101C18.3118 13.7669 18.5806 13.6416 18.8241 13.73C19.0674 13.8186 19.1928 14.0876 19.1043 14.3308L17.7725 17.9899C17.7051 18.1751 17.5291 18.2983 17.332 18.2983Z" fill="#4E5660"/>
<path d="M10.1689 18.2983C9.97181 18.2983 9.79581 18.175 9.72837 17.9898L8.83706 15.5409L7.94575 17.9898C7.87831 18.175 7.70231 18.2983 7.50525 18.2983C7.30818 18.2983 7.13218 18.175 7.06475 17.9898L5.733 14.3308C5.64443 14.0874 5.76987 13.8185 6.01318 13.7299C6.25637 13.6414 6.52537 13.7669 6.614 14.0101L7.50531 16.4589L8.39662 14.0101C8.46406 13.8249 8.64006 13.7016 8.83712 13.7016C9.03418 13.7016 9.21018 13.8249 9.27762 14.0101L10.1689 16.4589L11.0602 14.0101C11.1487 13.7668 11.4178 13.6416 11.6611 13.7299C11.9044 13.8185 12.0297 14.0875 11.9412 14.3308L10.6094 17.9898C10.5419 18.1751 10.3659 18.2983 10.1689 18.2983Z" fill="#4E5660"/>
<path d="M24.4946 18.2983C24.2975 18.2983 24.1215 18.175 24.0541 17.9898L23.1628 15.541L22.2715 17.9898C22.2041 18.175 22.028 18.2983 21.831 18.2983C21.6339 18.2983 21.4579 18.175 21.3905 17.9898L20.0587 14.3308C19.9701 14.0875 20.0956 13.8185 20.3388 13.73C20.5821 13.6416 20.8511 13.7669 20.9396 14.0101L21.8309 16.459L22.7222 14.0101C22.7896 13.8249 22.9657 13.7016 23.1627 13.7016C23.3598 13.7016 23.5359 13.8249 23.6032 14.0101L24.4945 16.459L25.3859 14.0101C25.4744 13.7668 25.7431 13.6415 25.9867 13.73C26.2299 13.8185 26.3554 14.0875 26.2668 14.3308L24.935 17.9898C24.8677 18.1751 24.6917 18.2983 24.4946 18.2983Z" fill="#4E5660"/>
</g>
<defs>
<clipPath id="clip0_335_1278">
<rect width="32" height="32" fill="white"/>
</clipPath>
</defs>
</svg>
