<svg width="37" height="37" viewBox="0 0 37 37" fill="none" xmlns="http://www.w3.org/2000/svg">
<g clip-path="url(#clip0_335_1185)">
<path d="M5.52763 11.9247C2.20587 15.2464 0.0766602 19.8326 0.0766602 24.8904C0.0766602 25.4869 0.559306 25.9695 1.15576 25.9695C3.49864 25.9695 5.35944 25.9695 7.70231 25.9695C8.29877 25.9695 8.78141 25.4869 8.78141 24.8904C8.78141 22.2127 9.87051 19.7847 11.6291 18.0262L10.9645 15.2034L9.15716 13.396L5.52763 11.9247Z" fill="#EF2E2E"/>
<path d="M18.4932 6.54572C18.4932 6.8988 17.4141 7.24246 17.4141 7.57878C17.4141 9.86654 17.4141 11.8163 17.4141 14.0996C17.4141 14.4506 18.4932 14.8094 18.4932 15.1785C21.1709 15.1785 23.5989 16.2676 25.3574 18.0262L26.3391 18.1236L30.8578 13.6049L31.4589 11.9247C28.1371 8.60299 23.5509 6.54572 18.4932 6.54572Z" fill="#17ACE8"/>
<path d="M5.52734 11.9247L11.6288 18.0262C13.3874 16.2676 15.8154 15.1785 18.493 15.1785C18.493 12.0546 18.493 9.66954 18.493 6.54568C13.4353 6.54568 8.84911 8.60296 5.52734 11.9247Z" fill="#FEDB41"/>
<path d="M31.4584 11.9247L25.3569 18.0262C27.1155 19.7847 28.2046 22.2127 28.2046 24.8904C28.2046 25.4869 28.6873 25.9695 29.2837 25.9695C31.6266 25.9695 33.4874 25.9695 35.8303 25.9695C36.4267 25.9695 36.9094 25.4869 36.9094 24.8904C36.9094 19.8326 34.7802 15.2464 31.4584 11.9247Z" fill="#10BB67"/>
<path d="M26.824 16.4518C26.4788 16.1281 25.9392 16.085 25.5292 16.3439C22.1408 18.5237 19.5725 20.164 16.1841 22.3222C15.5583 22.7322 15.0403 23.2718 14.7165 23.8976C13.7885 25.5595 14.069 27.6529 15.4504 29.0125C16.8747 30.4585 19.0977 30.696 20.8243 29.6169C21.4933 29.1636 22.0545 28.5378 22.3997 27.7824C24.1046 24.135 25.3996 21.3726 27.1046 17.7252C27.2989 17.2935 27.191 16.7755 26.824 16.4518Z" fill="#495A79"/>
<path d="M27.1044 17.7251C25.3995 21.3725 24.1045 24.1349 22.3995 27.7823C22.0543 28.5377 21.4932 29.1635 20.8241 29.6168C19.0976 30.6959 16.8745 30.4584 15.4502 29.0124L26.8239 16.4517C27.1908 16.7755 27.2987 17.2935 27.1044 17.7251Z" fill="#42516D"/>
</g>
<defs>
<clipPath id="clip0_335_1185">
<rect width="36.8333" height="36.8333" fill="white" transform="translate(0.0776367)"/>
</clipPath>
</defs>
</svg>
