<svg width="37" height="37" viewBox="0 0 37 37" fill="none" xmlns="http://www.w3.org/2000/svg">
<g clip-path="url(#clip0_230_321)">
<path d="M2.62204 34.7741C1.65506 34.7741 0.787566 34.2762 0.29944 33.4401C-0.190933 32.6002 -0.195711 31.5944 0.286514 30.75L16.0077 3.44249C16.4899 2.59803 17.3585 2.09108 18.3311 2.0863H18.3446C19.3116 2.0863 20.1791 2.58426 20.6672 3.42029L36.3904 30.576C36.8805 31.416 36.8855 32.4217 36.4033 33.2665C35.9211 34.1109 35.0525 34.6179 34.0799 34.6227L2.63553 34.7739C2.63103 34.7739 2.62654 34.7741 2.62204 34.7741Z" fill="#E10E59"/>
<path d="M36.3902 30.576L20.667 3.42029C20.1789 2.58426 19.3114 2.0863 18.3444 2.0863C18.3422 2.0863 18.3397 2.0863 18.3374 2.0863V34.6983L34.0799 34.6227C35.0525 34.6179 35.9209 34.1109 36.4031 33.2665C36.8853 32.4217 36.8806 31.416 36.3902 30.576Z" fill="#B01547"/>
<path d="M5.25732 30.5418L18.3378 7.83536L31.4037 30.4159L5.25732 30.5418Z" fill="#FFFBFD"/>
<path d="M18.3374 7.83536V30.4788L31.4033 30.4159L18.3374 7.83536Z" fill="#DEECF1"/>
<path d="M17.1929 25.035C17.1929 24.4229 17.6728 23.9668 18.345 23.9668C19.0169 23.9668 19.4969 24.4229 19.4969 25.035C19.4969 25.6352 19.0169 26.1273 18.345 26.1273C17.6728 26.1273 17.1929 25.6352 17.1929 25.035ZM17.2288 17.6302H19.461L19.0889 23.1148H17.6009L17.2288 17.6302Z" fill="#575F64"/>
<path d="M19.4969 25.035C19.4969 24.4229 19.0166 23.9668 18.3447 23.9668C18.3422 23.9668 18.3399 23.9671 18.3374 23.9671V26.1267C18.3399 26.1267 18.3422 26.1273 18.3447 26.1273C19.0166 26.1273 19.4969 25.6352 19.4969 25.035Z" fill="#32393F"/>
<path d="M19.4606 17.6302H18.3374V23.1148H19.0888L19.4606 17.6302Z" fill="#32393F"/>
</g>
<defs>
<clipPath id="clip0_230_321">
<rect width="36.8333" height="36.8333" fill="white"/>
</clipPath>
</defs>
</svg>
